<?xml version="1.0" encoding="utf-8"?>
<!DOCTYPE svg PUBLIC "-//W3C//DTD SVG 1.1//EN" "http://www.w3.org/Graphics/SVG/1.1/DTD/svg11.dtd">
<svg version="1.1" xmlns="http://www.w3.org/2000/svg" xmlns:xlink="http://www.w3.org/1999/xlink" x="0px" y="0px"
	viewBox="0 0 72 72" enable-background="new 0 0 72 72" xml:space="preserve">
	<g id="dragon" transform="matrix(0.39999216,0,0,0.39999216,-48.569773,-99.00689)">
		<path
			style="fill:#005000;fill-opacity:1;fill-rule:evenodd;stroke:#006400;stroke-width:0.40732184px;stroke-linecap:butt;stroke-linejoin:miter;stroke-opacity:1"
			d="m 180.6583,250.92056 c 31.86051,26.38565 -3.5e-4,1.2e-4 -58.61436,68.21542 36.89555,-11.50234 -1.2e-4,-1.6e-4 29.4527,51.66932 -4.96382,-13.37344 -5.84341,-24.19238 -4.95729,-33.96282 2.97027,-31.28931 14.48785,-47.98498 31.78582,-55.44275 26.36388,-9.81564 45.76054,-6.05093 62.40508,3.7734 27.63371,17.7533 31.69684,43.5271 30.32746,51.0891 1.4064,53.33718 -66.158,77.37546 -68.23314,44.47197 -0.61172,-12.52804 15.9264,-9.12229 23.43751,-16.59904 10.28873,-12.00639 -1.12304,-17.29397 13.36144,-26.60694 -1.44475,2.34092 -1.33027,3.95774 1.56125,5.98074 -3.08846,-2.7046 -0.93723,-5.56419 1.75901,-6.93637 3.79378,-1.67237 17.43768,5.48154 13.75635,-3.03365 l -1.02065,1.59622 -7.07191,-1.95892 9.47761,-2.75821 c 0.7656,-0.0445 1.53871,-0.10087 1.16655,1.74224 1.41219,-2.06746 2.82428,-3.63117 0.14514,-5.66087 -4.39608,-1.41148 -8.36891,-0.25494 -11.71747,-0.10242 0.90874,-1.13623 0.1907,-1.44333 -0.67539,-2.07477 -3.77812,-0.53653 -9.76108,-2.8763 -13.1232,-8.02225 1.16831,3.53944 2.94496,5.88773 5.90458,7.68408 -1.98455,-0.54236 -4.18231,0.49019 -12.33145,2.89077 12.02656,2.6414 -2.10134,3.44114 -7.20908,6.89752 9.15108,0.46954 -0.99982,3.10897 -2.58826,8.18174 -3.64158,-12.56038 -20.48956,-7.0389 -23.6215,-13.43273 13.30451,-21.58369 20.86523,-24.03254 51.70986,-18.88391 3.81654,2.5656 4.21459,2.49132 4.76117,8.22855 2.25648,-6.45341 2.08537,-9.86862 -2.02136,-13.61004 -29.49778,-23.89259 -63.07144,-11.47025 -78.00182,4.40281 3.09443,-1.4022 10.46673,-0.79677 11.36915,0.52851 -12.34426,9.6923 -21.17061,22.36615 -22.50051,34.16772 5.75169,-10.03199 8.3144,-10.63479 13.73527,-13.1143 -12.95455,23.52539 -6.86765,38.7742 0.48035,52.95632 0.20512,-18.47403 8.54164,-19.26446 8.54164,-19.26446 3.00627,21.54202 15.28139,51.1907 62.99584,61.44475 -31.24032,-26.02284 -3.4997,-2.90292 55.69755,-72.27929 -37.85921,12.52638 -1.2e-4,4e-5 -29.74453,-85.34169 -8.43644,39.48821 3.3e-4,3.7e-4 -90.39941,-16.83575 z m 37.11232,91.1851 c -0.0184,0.0187 -0.0364,0.0362 -0.055,0.0548 -0.004,-0.0113 -0.007,-0.022 -0.009,-0.0333 z"
			id="path3421-1-4-8-4-0" />
	</g>
</svg>
